<svg width="20" height="16" viewBox="0 0 20 16" fill="none" xmlns="http://www.w3.org/2000/svg">
<path fill-rule="evenodd" clip-rule="evenodd" d="M0.26351 6.15421C0.09083 6.43864 0 6.76056 0 7.08809V14.1176C0 15.1573 0.89543 16 2 16H18C19.1046 16 20 15.1573 20 14.1176V7.08809C20 6.76056 19.9092 6.43864 19.7365 6.15421L16.5758 0.948442C16.2198 0.361948 15.5571 0 14.8394 0H5.16065C4.44293 0 3.78025 0.361948 3.42416 0.948442L0.26351 6.15421ZM15.2735 1.64888C15.1845 1.50225 15.0188 1.41176 14.8394 1.41176H5.16065C4.98122 1.41176 4.81555 1.50225 4.72652 1.64888L1.72763 6.58824H5.5C6.05229 6.58824 6.4856 7.01816 6.64104 7.51699C7.06707 8.88405 8.4097 9.88235 10 9.88235C11.5903 9.88235 12.9329 8.88405 13.359 7.51699C13.5144 7.01816 13.9477 6.58824 14.5 6.58824H18.2724L15.2735 1.64888ZM18.5 8H14.7707C14.1336 9.90805 12.2407 11.2941 10 11.2941C7.7593 11.2941 5.86636 9.90805 5.22932 8H1.5V14.1176C1.5 14.3775 1.72386 14.5882 2 14.5882H18C18.2761 14.5882 18.5 14.3775 18.5 14.1176V8Z" fill="black"/>
</svg>
